<svg width="140" height="46" viewBox="0 0 140 46" fill="none" xmlns="http://www.w3.org/2000/svg">
<path d="M10.64 41.16C9.49333 41.16 8.46 40.9267 7.54 40.46C6.63333 39.98 5.92 39.32 5.4 38.48C4.89333 37.64 4.64 36.6867 4.64 35.62C4.64 34.5533 4.89333 33.6 5.4 32.76C5.92 31.92 6.63333 31.2667 7.54 30.8C8.46 30.32 9.49333 30.08 10.64 30.08C11.7733 30.08 12.76 30.32 13.6 30.8C14.4533 31.2667 15.0733 31.94 15.46 32.82L13.04 34.12C12.48 33.1333 11.6733 32.64 10.62 32.64C9.80667 32.64 9.13333 32.9067 8.6 33.44C8.06667 33.9733 7.8 34.7 7.8 35.62C7.8 36.54 8.06667 37.2667 8.6 37.8C9.13333 38.3333 9.80667 38.6 10.62 38.6C11.6867 38.6 12.4933 38.1067 13.04 37.12L15.46 38.44C15.0733 39.2933 14.4533 39.96 13.6 40.44C12.76 40.92 11.7733 41.16 10.64 41.16ZM21.5964 30.08C23.2631 30.08 24.5431 30.48 25.4364 31.28C26.3297 32.0667 26.7764 33.26 26.7764 34.86V41H23.8564V39.66C23.2697 40.66 22.1764 41.16 20.5764 41.16C19.7497 41.16 19.0297 41.02 18.4164 40.74C17.8164 40.46 17.3564 40.0733 17.0364 39.58C16.7164 39.0867 16.5564 38.5267 16.5564 37.9C16.5564 36.9 16.9297 36.1133 17.6764 35.54C18.4364 34.9667 19.6031 34.68 21.1764 34.68H23.6564C23.6564 34 23.4497 33.48 23.0364 33.12C22.6231 32.7467 22.0031 32.56 21.1764 32.56C20.6031 32.56 20.0364 32.6533 19.4764 32.84C18.9297 33.0133 18.4631 33.2533 18.0764 33.56L16.9564 31.38C17.5431 30.9667 18.2431 30.6467 19.0564 30.42C19.8831 30.1933 20.7297 30.08 21.5964 30.08ZM21.3564 39.06C21.8897 39.06 22.3631 38.94 22.7764 38.7C23.1897 38.4467 23.4831 38.08 23.6564 37.6V36.5H21.5164C20.2364 36.5 19.5964 36.92 19.5964 37.76C19.5964 38.16 19.7497 38.48 20.0564 38.72C20.3764 38.9467 20.8097 39.06 21.3564 39.06ZM32.5802 31.66C32.9535 31.14 33.4535 30.7467 34.0802 30.48C34.7202 30.2133 35.4535 30.08 36.2802 30.08V32.96C35.9335 32.9333 35.7002 32.92 35.5802 32.92C34.6868 32.92 33.9868 33.1733 33.4802 33.68C32.9735 34.1733 32.7202 34.92 32.7202 35.92V41H29.6002V30.24H32.5802V31.66ZM44.4953 30.08C45.4953 30.08 46.402 30.3133 47.2153 30.78C48.042 31.2333 48.6886 31.88 49.1553 32.72C49.622 33.5467 49.8553 34.5133 49.8553 35.62C49.8553 36.7267 49.622 37.7 49.1553 38.54C48.6886 39.3667 48.042 40.0133 47.2153 40.48C46.402 40.9333 45.4953 41.16 44.4953 41.16C43.122 41.16 42.042 40.7267 41.2553 39.86V44.88H38.1353V30.24H41.1153V31.48C41.8886 30.5467 43.0153 30.08 44.4953 30.08ZM43.9553 38.6C44.7553 38.6 45.4086 38.3333 45.9153 37.8C46.4353 37.2533 46.6953 36.5267 46.6953 35.62C46.6953 34.7133 46.4353 33.9933 45.9153 33.46C45.4086 32.9133 44.7553 32.64 43.9553 32.64C43.1553 32.64 42.4953 32.9133 41.9753 33.46C41.4686 33.9933 41.2153 34.7133 41.2153 35.62C41.2153 36.5267 41.4686 37.2533 41.9753 37.8C42.4953 38.3333 43.1553 38.6 43.9553 38.6ZM62.4839 35.66C62.4839 35.7 62.4639 35.98 62.4239 36.5H54.2839C54.4306 37.1667 54.7772 37.6933 55.3239 38.08C55.8706 38.4667 56.5506 38.66 57.3639 38.66C57.9239 38.66 58.4172 38.58 58.8439 38.42C59.2839 38.2467 59.6906 37.98 60.0639 37.62L61.7239 39.42C60.7106 40.58 59.2306 41.16 57.2839 41.16C56.0706 41.16 54.9972 40.9267 54.0639 40.46C53.1306 39.98 52.4106 39.32 51.9039 38.48C51.3972 37.64 51.1439 36.6867 51.1439 35.62C51.1439 34.5667 51.3906 33.62 51.8839 32.78C52.3906 31.9267 53.0772 31.2667 53.9439 30.8C54.8239 30.32 55.8039 30.08 56.8839 30.08C57.9372 30.08 58.8906 30.3067 59.7439 30.76C60.5972 31.2133 61.2639 31.8667 61.7439 32.72C62.2372 33.56 62.4839 34.54 62.4839 35.66ZM56.9039 32.44C56.1972 32.44 55.6039 32.64 55.1239 33.04C54.6439 33.44 54.3506 33.9867 54.2439 34.68H59.5439C59.4372 34 59.1439 33.46 58.6639 33.06C58.1839 32.6467 57.5972 32.44 56.9039 32.44ZM71.1011 30.08C72.4344 30.08 73.5078 30.48 74.3211 31.28C75.1478 32.08 75.5611 33.2667 75.5611 34.84V41H72.4411V35.32C72.4411 34.4667 72.2544 33.8333 71.8811 33.42C71.5078 32.9933 70.9678 32.78 70.2611 32.78C69.4744 32.78 68.8478 33.0267 68.3811 33.52C67.9144 34 67.6811 34.72 67.6811 35.68V41H64.5611V30.24H67.5411V31.5C67.9544 31.0467 68.4678 30.7 69.0811 30.46C69.6944 30.2067 70.3678 30.08 71.1011 30.08Z" fill="#EAE5E1"/>
<path d="M99.7692 27L95.1892 41H91.7092L88.6292 31.52L85.4492 41H81.9892L77.3892 27H80.7492L83.9092 36.84L87.2092 27H90.2092L93.4092 36.92L96.6692 27H99.7692ZM105.677 41.16C104.544 41.16 103.524 40.9267 102.617 40.46C101.724 39.98 101.024 39.32 100.517 38.48C100.011 37.64 99.7572 36.6867 99.7572 35.62C99.7572 34.5533 100.011 33.6 100.517 32.76C101.024 31.92 101.724 31.2667 102.617 30.8C103.524 30.32 104.544 30.08 105.677 30.08C106.811 30.08 107.824 30.32 108.717 30.8C109.611 31.2667 110.311 31.92 110.817 32.76C111.324 33.6 111.577 34.5533 111.577 35.62C111.577 36.6867 111.324 37.64 110.817 38.48C110.311 39.32 109.611 39.98 108.717 40.46C107.824 40.9267 106.811 41.16 105.677 41.16ZM105.677 38.6C106.477 38.6 107.131 38.3333 107.637 37.8C108.157 37.2533 108.417 36.5267 108.417 35.62C108.417 34.7133 108.157 33.9933 107.637 33.46C107.131 32.9133 106.477 32.64 105.677 32.64C104.877 32.64 104.217 32.9133 103.697 33.46C103.177 33.9933 102.917 34.7133 102.917 35.62C102.917 36.5267 103.177 37.2533 103.697 37.8C104.217 38.3333 104.877 38.6 105.677 38.6ZM118.783 41.16C117.649 41.16 116.629 40.9267 115.723 40.46C114.829 39.98 114.129 39.32 113.623 38.48C113.116 37.64 112.863 36.6867 112.863 35.62C112.863 34.5533 113.116 33.6 113.623 32.76C114.129 31.92 114.829 31.2667 115.723 30.8C116.629 30.32 117.649 30.08 118.783 30.08C119.916 30.08 120.929 30.32 121.823 30.8C122.716 31.2667 123.416 31.92 123.923 32.76C124.429 33.6 124.683 34.5533 124.683 35.62C124.683 36.6867 124.429 37.64 123.923 38.48C123.416 39.32 122.716 39.98 121.823 40.46C120.929 40.9267 119.916 41.16 118.783 41.16ZM118.783 38.6C119.583 38.6 120.236 38.3333 120.743 37.8C121.263 37.2533 121.523 36.5267 121.523 35.62C121.523 34.7133 121.263 33.9933 120.743 33.46C120.236 32.9133 119.583 32.64 118.783 32.64C117.983 32.64 117.323 32.9133 116.803 33.46C116.283 33.9933 116.023 34.7133 116.023 35.62C116.023 36.5267 116.283 37.2533 116.803 37.8C117.323 38.3333 117.983 38.6 118.783 38.6ZM137.728 26.16V41H134.748V39.76C133.975 40.6933 132.855 41.16 131.388 41.16C130.375 41.16 129.455 40.9333 128.628 40.48C127.815 40.0267 127.175 39.38 126.708 38.54C126.241 37.7 126.008 36.7267 126.008 35.62C126.008 34.5133 126.241 33.54 126.708 32.7C127.175 31.86 127.815 31.2133 128.628 30.76C129.455 30.3067 130.375 30.08 131.388 30.08C132.761 30.08 133.835 30.5133 134.608 31.38V26.16H137.728ZM131.928 38.6C132.715 38.6 133.368 38.3333 133.888 37.8C134.408 37.2533 134.668 36.5267 134.668 35.62C134.668 34.7133 134.408 33.9933 133.888 33.46C133.368 32.9133 132.715 32.64 131.928 32.64C131.128 32.64 130.468 32.9133 129.948 33.46C129.428 33.9933 129.168 34.7133 129.168 35.62C129.168 36.5267 129.428 37.2533 129.948 37.8C130.468 38.3333 131.128 38.6 131.928 38.6Z" fill="#C07945"/>
<line y1="-2" x2="20.1729" y2="-2" transform="matrix(0.764665 -0.644428 0.764665 0.644428 4 22)" stroke="#C07945" stroke-width="4"/>
<line y1="-2" x2="21.1315" y2="-2" transform="matrix(0.788375 0.615195 -0.739539 0.673113 8 3)" stroke="#C07945" stroke-width="4"/>
</svg>
